<?xml version="1.0" encoding="utf-8"?>
<!-- Generator: Adobe Illustrator 25.4.1, SVG Export Plug-In . SVG Version: 6.00 Build 0)  -->
<svg version="1.1" id="Camada_1" xmlns="http://www.w3.org/2000/svg" xmlns:xlink="http://www.w3.org/1999/xlink" x="0px" y="0px"
	 viewBox="0 0 1615.6 505.1" style="enable-background:new 0 0 1615.6 505.1;" xml:space="preserve">
<style type="text/css">
	.st0{fill:#45BDEE;}
	.st1{fill:#2E7E94;}
	.st2{fill:#BCD157;}
	.st3{fill:#FFFFFF;}
	.st4{fill:#0C2535;}
</style>
<g>
	<path class="st0" d="M332.8,427h-22.7c-44.3-108-45.3-232.6-3-341.4h43C297.8,189.9,291.6,316.6,332.8,427z"/>
	<path class="st1" d="M163.2,427h-22.7c41.2-110.4,35-237-17.3-341.4h43C208.5,194.3,207.5,319,163.2,427z"/>
	<polygon class="st2" points="256.5,0 255.3,85.6 250.3,427 249.2,505.1 224.1,505.1 223,427 218,85.6 216.8,0 	"/>
	<path class="st0" d="M473.3,212.2v12.5c0,37.6-30.6,68.2-68.2,68.2c-37.6,0-68.1-30.6-68.1-68.2v-12.5H473.3z"/>
	<path class="st1" d="M136.3,212.2v12.5c0,37.6-30.6,68.2-68.2,68.2C30.6,292.9,0,262.4,0,224.8v-12.5H136.3z"/>
	<g>
		<g>
			<path class="st3" d="M554.8,348.9v-63.2h27.3c4.7,0,8.8,0.9,12.3,2.6c3.5,1.7,6.3,4.2,8.2,7.4c2,3.2,2.9,7.1,2.9,11.5
				c0,4.5-1,8.3-3,11.5c-2,3.1-4.8,5.5-8.4,7c-3.6,1.6-7.8,2.4-12.6,2.4h-16.3v-13.3H578c2,0,3.7-0.3,5.2-0.8
				c1.4-0.5,2.5-1.3,3.3-2.4c0.8-1.1,1.2-2.6,1.2-4.4c0-1.8-0.4-3.3-1.2-4.4c-0.8-1.1-1.9-2-3.3-2.5c-1.4-0.5-3.2-0.8-5.2-0.8h-6.1
				v49.5H554.8z M591.8,319.8l15.8,29H589l-15.4-29H591.8z"/>
			<path class="st3" d="M632.2,285.6v63.2H615v-63.2H632.2z"/>
			<path class="st3" d="M703.7,317.2c0,7-1.4,13-4.1,17.8c-2.7,4.8-6.4,8.5-11.1,11c-4.7,2.5-9.8,3.7-15.6,3.7
				c-5.8,0-11-1.2-15.6-3.8s-8.3-6.2-11.1-11c-2.7-4.8-4.1-10.7-4.1-17.7c0-7,1.4-13,4.1-17.8c2.7-4.8,6.4-8.5,11.1-11
				c4.6-2.5,9.8-3.7,15.6-3.7c5.7,0,10.9,1.2,15.6,3.7c4.7,2.5,8.3,6.1,11.1,11C702.4,304.3,703.7,310.2,703.7,317.2z M686.1,317.2
				c0-3.8-0.5-7-1.5-9.6c-1-2.6-2.5-4.6-4.4-5.9c-1.9-1.3-4.3-2-7.2-2s-5.2,0.7-7.2,2c-1.9,1.3-3.4,3.3-4.4,5.9
				c-1,2.6-1.5,5.8-1.5,9.6c0,3.8,0.5,7,1.5,9.6c1,2.6,2.5,4.6,4.4,5.9c1.9,1.3,4.3,2,7.2,2s5.2-0.7,7.2-2c1.9-1.3,3.4-3.3,4.4-5.9
				C685.6,324.2,686.1,321,686.1,317.2z"/>
			<path class="st3" d="M774.3,306.5c-0.3-1.1-0.7-2.1-1.3-2.9c-0.6-0.8-1.3-1.5-2.1-2.1c-0.9-0.6-1.8-1-3-1.3
				c-1.1-0.3-2.4-0.4-3.7-0.4c-2.9,0-5.3,0.7-7.4,2.1c-2,1.4-3.6,3.4-4.6,6c-1.1,2.6-1.6,5.7-1.6,9.4c0,3.7,0.5,6.9,1.5,9.5
				c1,2.6,2.5,4.7,4.5,6.1c2,1.4,4.5,2.1,7.4,2.1c2.6,0,4.8-0.4,6.5-1.1c1.7-0.8,3-1.8,3.9-3.2c0.9-1.4,1.3-3,1.3-4.9l3,0.3h-14.4
				v-12.2h28v8.8c0,5.8-1.2,10.7-3.7,14.8c-2.4,4.1-5.8,7.2-10.1,9.4c-4.3,2.2-9.2,3.3-14.7,3.3c-6.2,0-11.6-1.3-16.2-3.9
				c-4.7-2.6-8.3-6.3-10.9-11.2c-2.6-4.8-3.9-10.6-3.9-17.3c0-5.2,0.8-9.9,2.4-13.9c1.6-4,3.8-7.4,6.7-10.2c2.8-2.8,6.1-4.9,9.8-6.3
				c3.7-1.4,7.7-2.1,12-2.1c3.7,0,7.2,0.5,10.5,1.6c3.2,1.1,6.1,2.6,8.6,4.5c2.5,1.9,4.5,4.2,6,6.9c1.5,2.7,2.4,5.6,2.8,8.7H774.3z"
				/>
			<path class="st3" d="M802.6,348.9v-63.2h27.3c4.7,0,8.8,0.9,12.3,2.6c3.5,1.7,6.3,4.2,8.2,7.4c2,3.2,2.9,7.1,2.9,11.5
				c0,4.5-1,8.3-3,11.5c-2,3.1-4.8,5.5-8.4,7c-3.6,1.6-7.8,2.4-12.6,2.4H813v-13.3h12.8c2,0,3.7-0.3,5.2-0.8
				c1.4-0.5,2.5-1.3,3.3-2.4c0.8-1.1,1.2-2.6,1.2-4.4c0-1.8-0.4-3.3-1.2-4.4c-0.8-1.1-1.9-2-3.3-2.5c-1.4-0.5-3.2-0.8-5.2-0.8h-6.1
				v49.5H802.6z M839.7,319.8l15.8,29h-18.6l-15.4-29H839.7z"/>
			<path class="st3" d="M879.2,348.9h-18.5l20.9-63.2H905l20.9,63.2h-18.5L893.6,303h-0.5L879.2,348.9z M875.8,323.9h34.8v12.8
				h-34.8V323.9z"/>
			<path class="st3" d="M988.8,285.6v63.2h-14.3l-22.8-33.2h-0.4v33.2h-17.2v-63.2h14.6l22.5,33.1h0.5v-33.1H988.8z"/>
			<path class="st3" d="M1023.5,348.9h-24.3v-63.2h24.1c6.5,0,12.1,1.3,16.9,3.8c4.7,2.5,8.4,6.1,11,10.9c2.6,4.7,3.9,10.4,3.9,17
				c0,6.6-1.3,12.2-3.9,17c-2.6,4.7-6.2,8.3-10.9,10.9C1035.5,347.6,1029.9,348.9,1023.5,348.9z M1016.3,334.3h6.5
				c3.1,0,5.8-0.5,8-1.5c2.2-1,3.9-2.7,5.1-5.2c1.2-2.5,1.7-5.9,1.7-10.3c0-4.4-0.6-7.8-1.8-10.3c-1.2-2.5-2.9-4.2-5.2-5.2
				c-2.3-1-5.1-1.5-8.4-1.5h-6.1V334.3z"/>
			<path class="st3" d="M1065.1,348.9v-63.2h45.6v13.8h-28.4v10.9h26.1v13.8h-26.1V335h28.3v13.8H1065.1z"/>
			<path class="st3" d="M1165.1,348.9h-24.3v-63.2h24.1c6.5,0,12.1,1.3,16.9,3.8c4.7,2.5,8.4,6.1,11,10.9c2.6,4.7,3.9,10.4,3.9,17
				c0,6.6-1.3,12.2-3.9,17c-2.6,4.7-6.2,8.3-10.9,10.9C1177.1,347.6,1171.5,348.9,1165.1,348.9z M1157.9,334.3h6.5
				c3.1,0,5.8-0.5,8-1.5c2.2-1,3.9-2.7,5.1-5.2c1.2-2.5,1.7-5.9,1.7-10.3c0-4.4-0.6-7.8-1.8-10.3c-1.2-2.5-2.9-4.2-5.2-5.2
				c-2.3-1-5.1-1.5-8.4-1.5h-6.1V334.3z"/>
			<path class="st3" d="M1267.9,317.2c0,7-1.4,13-4.1,17.8c-2.7,4.8-6.4,8.5-11.1,11c-4.7,2.5-9.8,3.7-15.6,3.7
				c-5.8,0-11-1.2-15.6-3.8c-4.6-2.5-8.3-6.2-11.1-11c-2.7-4.8-4.1-10.7-4.1-17.7c0-7,1.4-13,4.1-17.8c2.7-4.8,6.4-8.5,11.1-11
				c4.6-2.5,9.8-3.7,15.6-3.7c5.7,0,10.9,1.2,15.6,3.7c4.7,2.5,8.3,6.1,11.1,11C1266.5,304.3,1267.9,310.2,1267.9,317.2z
				 M1250.2,317.2c0-3.8-0.5-7-1.5-9.6c-1-2.6-2.5-4.6-4.4-5.9c-1.9-1.3-4.3-2-7.2-2c-2.8,0-5.2,0.7-7.2,2c-1.9,1.3-3.4,3.3-4.4,5.9
				c-1,2.6-1.5,5.8-1.5,9.6c0,3.8,0.5,7,1.5,9.6c1,2.6,2.5,4.6,4.4,5.9c1.9,1.3,4.3,2,7.2,2c2.8,0,5.2-0.7,7.2-2
				c1.9-1.3,3.4-3.3,4.4-5.9C1249.7,324.2,1250.2,321,1250.2,317.2z"/>
			<path class="st3" d="M1352.1,285.6v63.2h-14.3l-22.8-33.2h-0.4v33.2h-17.2v-63.2h14.6l22.5,33.1h0.5v-33.1H1352.1z"/>
			<path class="st3" d="M1423.7,317.2c0,7-1.4,13-4.1,17.8c-2.7,4.8-6.4,8.5-11.1,11c-4.7,2.5-9.8,3.7-15.6,3.7
				c-5.8,0-11-1.2-15.6-3.8c-4.6-2.5-8.3-6.2-11.1-11c-2.7-4.8-4.1-10.7-4.1-17.7c0-7,1.4-13,4.1-17.8c2.7-4.8,6.4-8.5,11.1-11
				c4.6-2.5,9.8-3.7,15.6-3.7c5.7,0,10.9,1.2,15.6,3.7c4.7,2.5,8.3,6.1,11.1,11C1422.3,304.3,1423.7,310.2,1423.7,317.2z
				 M1406.1,317.2c0-3.8-0.5-7-1.5-9.6c-1-2.6-2.5-4.6-4.4-5.9c-1.9-1.3-4.3-2-7.2-2c-2.8,0-5.2,0.7-7.2,2c-1.9,1.3-3.4,3.3-4.4,5.9
				c-1,2.6-1.5,5.8-1.5,9.6c0,3.8,0.5,7,1.5,9.6c1,2.6,2.5,4.6,4.4,5.9c1.9,1.3,4.3,2,7.2,2c2.8,0,5.2-0.7,7.2-2
				c1.9-1.3,3.4-3.3,4.4-5.9C1405.6,324.2,1406.1,321,1406.1,317.2z"/>
			<path class="st3" d="M1433.8,348.9v-63.2h27.3c4.7,0,8.8,0.9,12.3,2.6c3.5,1.7,6.3,4.2,8.2,7.4c2,3.2,2.9,7.1,2.9,11.5
				c0,4.5-1,8.3-3,11.5c-2,3.1-4.8,5.5-8.4,7c-3.6,1.6-7.8,2.4-12.6,2.4h-16.3v-13.3h12.8c2,0,3.7-0.3,5.2-0.8
				c1.4-0.5,2.5-1.3,3.3-2.4c0.8-1.1,1.2-2.6,1.2-4.4c0-1.8-0.4-3.3-1.2-4.4c-0.8-1.1-1.9-2-3.3-2.5c-1.4-0.5-3.2-0.8-5.2-0.8h-6.1
				v49.5H1433.8z M1470.8,319.8l15.8,29H1468l-15.4-29H1470.8z"/>
			<path class="st3" d="M1492.3,299.5v-13.8h55v13.8h-19v49.4h-16.9v-49.4H1492.3z"/>
			<path class="st3" d="M1555.8,348.9v-63.2h45.6v13.8H1573v10.9h26.1v13.8H1573V335h28.3v13.8H1555.8z"/>
		</g>
		<g>
			<path class="st3" d="M540.6,158.5v-10.3h54v10.3h-20.9v57.4h-12.2v-57.4H540.6z"/>
			<path class="st3" d="M607.2,215.8v-67.6h25.4c5.2,0,9.6,0.9,13.1,2.7c3.5,1.8,6.2,4.3,8,7.6c1.8,3.2,2.7,7,2.7,11.3
				c0,4.3-0.9,8.1-2.8,11.3c-1.8,3.2-4.5,5.6-8.1,7.4c-3.6,1.7-8,2.6-13.1,2.6h-18.1v-10.2h16.4c3,0,5.5-0.4,7.5-1.3
				c1.9-0.8,3.4-2.1,4.3-3.7c0.9-1.6,1.4-3.7,1.4-6.1c0-2.4-0.5-4.5-1.4-6.2c-0.9-1.7-2.4-3-4.3-3.9c-1.9-0.9-4.4-1.3-7.5-1.3h-11.2
				v57.4H607.2z M642.2,185.2l16.7,30.7h-13.7l-16.4-30.7H642.2z"/>
			<path class="st3" d="M682.3,148.2v67.6h-12.3v-67.6H682.3z"/>
			<path class="st3" d="M698,215.8v-67.6h25.9c4.9,0,9,0.8,12.2,2.3c3.2,1.5,5.7,3.6,7.3,6.3c1.6,2.6,2.4,5.6,2.4,9
				c0,2.8-0.5,5.1-1.6,7.1c-1.1,1.9-2.5,3.5-4.3,4.7c-1.8,1.2-3.8,2.1-6,2.6v0.7c2.4,0.1,4.7,0.9,6.9,2.2s4,3.2,5.4,5.6
				c1.4,2.4,2.1,5.4,2.1,8.8c0,3.5-0.8,6.6-2.5,9.4c-1.7,2.8-4.3,5-7.7,6.6c-3.4,1.6-7.7,2.4-12.9,2.4H698z M710.2,177h12.1
				c2.1,0,4-0.4,5.7-1.2c1.7-0.8,3-1.9,4-3.3c1-1.4,1.5-3.2,1.5-5.1c0-2.6-0.9-4.8-2.8-6.5c-1.8-1.7-4.6-2.5-8.2-2.5h-12.4V177z
				 M710.2,205.6h13.2c4.4,0,7.7-0.9,9.6-2.6c2-1.7,3-3.9,3-6.6c0-2-0.5-3.8-1.5-5.4c-1-1.6-2.4-2.9-4.2-3.8c-1.8-0.9-4-1.4-6.5-1.4
				h-13.5V205.6z"/>
			<path class="st3" d="M804.1,148.2h12.3v44.2c0,4.8-1.1,9.1-3.4,12.8c-2.3,3.7-5.5,6.5-9.6,8.6c-4.1,2.1-8.9,3.1-14.4,3.1
				c-5.5,0-10.3-1-14.5-3.1c-4.1-2.1-7.3-4.9-9.6-8.6c-2.3-3.7-3.4-7.9-3.4-12.8v-44.2h12.3v43.2c0,2.8,0.6,5.3,1.9,7.5
				c1.2,2.2,3,3.9,5.3,5.2c2.3,1.2,5,1.9,8.1,1.9c3.1,0,5.8-0.6,8.1-1.9c2.3-1.2,4-3,5.3-5.2c1.2-2.2,1.8-4.7,1.8-7.5V148.2z"/>
			<path class="st3" d="M887.6,148.2v67.6h-10.9l-31.9-46.1h-0.6v46.1H832v-67.6h11l31.8,46.1h0.6v-46.1H887.6z"/>
			<path class="st3" d="M911.9,215.8h-13.1l23.8-67.6h15.1l23.8,67.6h-13.1l-18.1-53.8h-0.5L911.9,215.8z M912.3,189.3H948v9.8
				h-35.7V189.3z"/>
			<path class="st3" d="M972.9,215.8v-67.6h12.3v57.4h29.8v10.3H972.9z"/>
			<path class="st3" d="M1076.2,215.8h-22.9v-67.6h23.4c6.7,0,12.5,1.3,17.3,4c4.8,2.7,8.6,6.6,11.1,11.6c2.6,5,3.9,11.1,3.9,18.1
				c0,7-1.3,13.1-3.9,18.2c-2.6,5.1-6.4,9-11.3,11.7S1083.1,215.8,1076.2,215.8z M1065.5,205.2h10.1c4.7,0,8.6-0.9,11.8-2.6
				c3.1-1.7,5.5-4.3,7.1-7.8c1.6-3.4,2.4-7.8,2.4-12.9c0-5.2-0.8-9.5-2.4-12.9c-1.6-3.4-3.9-6-7-7.7c-3.1-1.7-6.9-2.6-11.5-2.6
				h-10.4V205.2z"/>
			<path class="st3" d="M1123,215.8v-67.6h44v10.3h-31.7v18.4h29.5v10.3h-29.5v18.5h32v10.3H1123z"/>
			<path class="st3" d="M1233.9,148.2h12.2v47.6c0,4.4-0.9,8.1-2.8,11.2c-1.8,3.1-4.4,5.5-7.6,7.2c-3.3,1.7-7.1,2.5-11.4,2.5
				c-4,0-7.5-0.7-10.7-2.1c-3.2-1.4-5.7-3.5-7.5-6.3c-1.8-2.8-2.8-6.3-2.8-10.4h12.2c0,1.8,0.4,3.4,1.2,4.7c0.8,1.3,1.9,2.3,3.3,3
				c1.4,0.7,3,1.1,4.8,1.1c2,0,3.6-0.4,5-1.2c1.4-0.8,2.4-2.1,3.1-3.7c0.7-1.6,1.1-3.6,1.1-6V148.2z"/>
			<path class="st3" d="M1304.3,148.2h12.3v44.2c0,4.8-1.1,9.1-3.4,12.8c-2.3,3.7-5.5,6.5-9.6,8.6c-4.1,2.1-8.9,3.1-14.4,3.1
				c-5.5,0-10.4-1-14.5-3.1c-4.1-2.1-7.3-4.9-9.6-8.6c-2.3-3.7-3.4-7.9-3.4-12.8v-44.2h12.3v43.2c0,2.8,0.6,5.3,1.9,7.5
				c1.2,2.2,3,3.9,5.3,5.2c2.3,1.2,5,1.9,8.1,1.9c3.1,0,5.8-0.6,8.1-1.9c2.3-1.2,4-3,5.3-5.2c1.2-2.2,1.8-4.7,1.8-7.5V148.2z"/>
			<path class="st3" d="M1369,166.8c-0.3-2.9-1.6-5.1-3.9-6.7c-2.3-1.6-5.2-2.4-8.9-2.4c-2.6,0-4.7,0.4-6.6,1.2
				c-1.8,0.8-3.2,1.8-4.2,3.1c-1,1.3-1.5,2.8-1.5,4.5c0,1.4,0.3,2.6,1,3.7c0.6,1,1.5,1.9,2.7,2.6c1.1,0.7,2.4,1.3,3.7,1.8
				c1.4,0.5,2.7,0.9,4.1,1.2l6.3,1.6c2.6,0.6,5,1.4,7.4,2.4c2.4,1,4.5,2.3,6.4,3.8c1.9,1.5,3.4,3.4,4.5,5.6c1.1,2.2,1.7,4.7,1.7,7.7
				c0,4-1,7.4-3,10.5c-2,3-4.9,5.4-8.8,7c-3.8,1.7-8.4,2.5-13.9,2.5c-5.3,0-9.8-0.8-13.7-2.4s-6.9-4-9.1-7.1
				c-2.2-3.1-3.3-6.9-3.5-11.4h12.1c0.2,2.4,0.9,4.3,2.2,5.9c1.3,1.6,2.9,2.7,5,3.5c2.1,0.8,4.4,1.2,6.9,1.2c2.7,0,5-0.4,7-1.2
				c2-0.8,3.6-1.9,4.7-3.4c1.1-1.4,1.7-3.1,1.8-5.1c0-1.8-0.5-3.2-1.6-4.4c-1-1.2-2.4-2.1-4.2-2.9c-1.8-0.8-3.9-1.5-6.4-2.1l-7.7-2
				c-5.6-1.4-10-3.6-13.2-6.5c-3.2-2.9-4.8-6.8-4.8-11.6c0-4,1.1-7.5,3.3-10.5c2.2-3,5.1-5.3,8.9-7c3.7-1.7,8-2.5,12.7-2.5
				c4.8,0,9,0.8,12.6,2.5c3.6,1.7,6.5,4,8.5,6.9s3.1,6.3,3.2,10.1H1369z"/>
			<path class="st3" d="M1392,158.5v-10.3h54v10.3h-20.9v57.4h-12.2v-57.4H1392z"/>
			<path class="st3" d="M1470.9,148.2v67.6h-12.3v-67.6H1470.9z"/>
			<path class="st3" d="M1544.5,171h-12.4c-0.4-2-1-3.8-1.9-5.4c-0.9-1.6-2.1-2.9-3.5-4s-3-1.9-4.8-2.5c-1.8-0.6-3.7-0.8-5.8-0.8
				c-3.7,0-6.9,0.9-9.8,2.8c-2.8,1.8-5.1,4.5-6.7,8.1c-1.6,3.5-2.4,7.8-2.4,12.9c0,5.2,0.8,9.5,2.4,13.1c1.6,3.5,3.8,6.2,6.7,8
				c2.8,1.8,6.1,2.7,9.7,2.7c2,0,3.9-0.3,5.7-0.8c1.8-0.5,3.4-1.3,4.8-2.4c1.4-1.1,2.6-2.4,3.6-3.9c1-1.5,1.7-3.3,2-5.3l12.4,0.1
				c-0.5,3.2-1.5,6.2-3,9.1c-1.5,2.8-3.5,5.3-6,7.4c-2.5,2.1-5.4,3.8-8.7,5c-3.3,1.2-7,1.8-11,1.8c-5.9,0-11.3-1.4-15.9-4.1
				c-4.7-2.8-8.3-6.7-11-11.9c-2.7-5.2-4-11.4-4-18.7c0-7.3,1.4-13.5,4.1-18.7c2.7-5.2,6.4-9.2,11.1-11.9c4.7-2.8,10-4.1,15.9-4.1
				c3.8,0,7.3,0.5,10.5,1.6c3.2,1.1,6.1,2.6,8.7,4.6c2.5,2,4.6,4.5,6.3,7.5C1542.9,163.9,1544,167.2,1544.5,171z M1512.4,215.8h6.5
				l-0.5,2.8c2.1,0.3,3.8,1.1,5.3,2.4c1.4,1.3,2.2,3.1,2.2,5.6c0,3.1-1.4,5.6-4.2,7.5c-2.8,1.9-6.8,2.8-12.1,2.8l-0.1-5.9
				c2.5,0,4.5-0.3,6-1c1.5-0.7,2.3-1.7,2.3-3.2c0-1.4-0.5-2.4-1.6-3.1c-1.1-0.6-2.8-1.1-5.2-1.3L1512.4,215.8z"/>
			<path class="st3" d="M1565.9,215.8h-13.1l23.8-67.6h15.1l23.9,67.6h-13.1l-18.1-53.8h-0.5L1565.9,215.8z M1566.3,189.3h35.7v9.8
				h-35.7V189.3z"/>
		</g>
	</g>
</g>
<g>
	<path class="st0" d="M332.8-268.5h-22.7c-44.3-108-45.3-232.6-3-341.4h43C297.8-505.6,291.6-378.9,332.8-268.5z"/>
	<path class="st1" d="M163.2-268.5h-22.7c41.2-110.4,35-237-17.3-341.4h43C208.5-501.1,207.5-376.5,163.2-268.5z"/>
	<polygon class="st2" points="256.5,-695.5 255.3,-609.9 250.3,-268.5 249.2,-190.4 224.1,-190.4 223,-268.5 218,-609.9 
		216.8,-695.5 	"/>
	<path class="st0" d="M473.3-483.3v12.5c0,37.6-30.6,68.2-68.2,68.2c-37.6,0-68.1-30.6-68.1-68.2v-12.5H473.3z"/>
	<path class="st1" d="M136.3-483.3v12.5c0,37.6-30.6,68.2-68.2,68.2C30.6-402.6,0-433.1,0-470.7v-12.5H136.3z"/>
	<g>
		<g>
			<path class="st4" d="M554.8-346.6v-63.2h27.3c4.7,0,8.8,0.9,12.3,2.6c3.5,1.7,6.3,4.2,8.2,7.4c2,3.2,2.9,7.1,2.9,11.5
				c0,4.5-1,8.3-3,11.5c-2,3.1-4.8,5.5-8.4,7c-3.6,1.6-7.8,2.4-12.6,2.4h-16.3v-13.3H578c2,0,3.7-0.3,5.2-0.8
				c1.4-0.5,2.5-1.3,3.3-2.4c0.8-1.1,1.2-2.6,1.2-4.4c0-1.8-0.4-3.3-1.2-4.4c-0.8-1.1-1.9-2-3.3-2.5c-1.4-0.5-3.2-0.8-5.2-0.8h-6.1
				v49.5H554.8z M591.8-375.7l15.8,29H589l-15.4-29H591.8z"/>
			<path class="st4" d="M632.2-409.9v63.2H615v-63.2H632.2z"/>
			<path class="st4" d="M703.7-378.2c0,7-1.4,13-4.1,17.8c-2.7,4.8-6.4,8.5-11.1,11c-4.7,2.5-9.8,3.7-15.6,3.7
				c-5.8,0-11-1.2-15.6-3.8c-4.6-2.5-8.3-6.2-11.1-11c-2.7-4.8-4.1-10.7-4.1-17.7c0-7,1.4-13,4.1-17.8c2.7-4.8,6.4-8.5,11.1-11
				c4.6-2.5,9.8-3.7,15.6-3.7c5.7,0,10.9,1.2,15.6,3.7c4.7,2.5,8.3,6.1,11.1,11C702.4-391.2,703.7-385.3,703.7-378.2z M686.1-378.2
				c0-3.8-0.5-7-1.5-9.6c-1-2.6-2.5-4.6-4.4-5.9c-1.9-1.3-4.3-2-7.2-2s-5.2,0.7-7.2,2c-1.9,1.3-3.4,3.3-4.4,5.9
				c-1,2.6-1.5,5.8-1.5,9.6c0,3.8,0.5,7,1.5,9.6c1,2.6,2.5,4.6,4.4,5.9c1.9,1.3,4.3,2,7.2,2s5.2-0.7,7.2-2c1.9-1.3,3.4-3.3,4.4-5.9
				C685.6-371.3,686.1-374.5,686.1-378.2z"/>
			<path class="st4" d="M774.3-389c-0.3-1.1-0.7-2.1-1.3-2.9c-0.6-0.8-1.3-1.5-2.1-2.1c-0.9-0.6-1.8-1-3-1.3
				c-1.1-0.3-2.4-0.4-3.7-0.4c-2.9,0-5.3,0.7-7.4,2.1c-2,1.4-3.6,3.4-4.6,6c-1.1,2.6-1.6,5.7-1.6,9.4c0,3.7,0.5,6.9,1.5,9.5
				c1,2.6,2.5,4.7,4.5,6.1c2,1.4,4.5,2.1,7.4,2.1c2.6,0,4.8-0.4,6.5-1.1s3-1.8,3.9-3.2c0.9-1.4,1.3-3,1.3-4.9l3,0.3h-14.4v-12.2h28
				v8.8c0,5.8-1.2,10.7-3.7,14.8c-2.4,4.1-5.8,7.2-10.1,9.4c-4.3,2.2-9.2,3.3-14.7,3.3c-6.2,0-11.6-1.3-16.2-3.9
				c-4.7-2.6-8.3-6.3-10.9-11.2c-2.6-4.8-3.9-10.6-3.9-17.3c0-5.2,0.8-9.9,2.4-13.9c1.6-4,3.8-7.4,6.7-10.2c2.8-2.8,6.1-4.9,9.8-6.3
				c3.7-1.4,7.7-2.1,12-2.1c3.7,0,7.2,0.5,10.5,1.6c3.2,1.1,6.1,2.6,8.6,4.5c2.5,1.9,4.5,4.2,6,6.9c1.5,2.7,2.4,5.6,2.8,8.7H774.3z"
				/>
			<path class="st4" d="M802.6-346.6v-63.2h27.3c4.7,0,8.8,0.9,12.3,2.6c3.5,1.7,6.3,4.2,8.2,7.4c2,3.2,2.9,7.1,2.9,11.5
				c0,4.5-1,8.3-3,11.5c-2,3.1-4.8,5.5-8.4,7c-3.6,1.6-7.8,2.4-12.6,2.4H813v-13.3h12.8c2,0,3.7-0.3,5.2-0.8
				c1.4-0.5,2.5-1.3,3.3-2.4c0.8-1.1,1.2-2.6,1.2-4.4c0-1.8-0.4-3.3-1.2-4.4c-0.8-1.1-1.9-2-3.3-2.5c-1.4-0.5-3.2-0.8-5.2-0.8h-6.1
				v49.5H802.6z M839.7-375.7l15.8,29h-18.6l-15.4-29H839.7z"/>
			<path class="st4" d="M879.2-346.6h-18.5l20.9-63.2H905l20.9,63.2h-18.5l-13.8-45.8h-0.5L879.2-346.6z M875.8-371.6h34.8v12.8
				h-34.8V-371.6z"/>
			<path class="st4" d="M988.8-409.9v63.2h-14.3l-22.8-33.2h-0.4v33.2h-17.2v-63.2h14.6l22.5,33.1h0.5v-33.1H988.8z"/>
			<path class="st4" d="M1023.5-346.6h-24.3v-63.2h24.1c6.5,0,12.1,1.3,16.9,3.8c4.7,2.5,8.4,6.1,11,10.9c2.6,4.7,3.9,10.4,3.9,17
				c0,6.6-1.3,12.2-3.9,17c-2.6,4.7-6.2,8.3-10.9,10.9C1035.5-347.9,1029.9-346.6,1023.5-346.6z M1016.3-361.2h6.5
				c3.1,0,5.8-0.5,8-1.5c2.2-1,3.9-2.7,5.1-5.2c1.2-2.5,1.7-5.9,1.7-10.3c0-4.4-0.6-7.8-1.8-10.3c-1.2-2.5-2.9-4.2-5.2-5.2
				c-2.3-1-5.1-1.5-8.4-1.5h-6.1V-361.2z"/>
			<path class="st4" d="M1065.1-346.6v-63.2h45.6v13.8h-28.4v10.9h26.1v13.8h-26.1v10.9h28.3v13.8H1065.1z"/>
			<path class="st4" d="M1165.1-346.6h-24.3v-63.2h24.1c6.5,0,12.1,1.3,16.9,3.8c4.7,2.5,8.4,6.1,11,10.9c2.6,4.7,3.9,10.4,3.9,17
				c0,6.6-1.3,12.2-3.9,17c-2.6,4.7-6.2,8.3-10.9,10.9C1177.1-347.9,1171.5-346.6,1165.1-346.6z M1157.9-361.2h6.5
				c3.1,0,5.8-0.5,8-1.5c2.2-1,3.9-2.7,5.1-5.2c1.2-2.5,1.7-5.9,1.7-10.3c0-4.4-0.6-7.8-1.8-10.3c-1.2-2.5-2.9-4.2-5.2-5.2
				c-2.3-1-5.1-1.5-8.4-1.5h-6.1V-361.2z"/>
			<path class="st4" d="M1267.9-378.2c0,7-1.4,13-4.1,17.8c-2.7,4.8-6.4,8.5-11.1,11c-4.7,2.5-9.8,3.7-15.6,3.7
				c-5.8,0-11-1.2-15.6-3.8c-4.6-2.5-8.3-6.2-11.1-11c-2.7-4.8-4.1-10.7-4.1-17.7c0-7,1.4-13,4.1-17.8c2.7-4.8,6.4-8.5,11.1-11
				c4.6-2.5,9.8-3.7,15.6-3.7c5.7,0,10.9,1.2,15.6,3.7c4.7,2.5,8.3,6.1,11.1,11C1266.5-391.2,1267.9-385.3,1267.9-378.2z
				 M1250.2-378.2c0-3.8-0.5-7-1.5-9.6c-1-2.6-2.5-4.6-4.4-5.9c-1.9-1.3-4.3-2-7.2-2c-2.8,0-5.2,0.7-7.2,2c-1.9,1.3-3.4,3.3-4.4,5.9
				c-1,2.6-1.5,5.8-1.5,9.6c0,3.8,0.5,7,1.5,9.6c1,2.6,2.5,4.6,4.4,5.9c1.9,1.3,4.3,2,7.2,2c2.8,0,5.2-0.7,7.2-2
				c1.9-1.3,3.4-3.3,4.4-5.9C1249.7-371.3,1250.2-374.5,1250.2-378.2z"/>
			<path class="st4" d="M1352.1-409.9v63.2h-14.3l-22.8-33.2h-0.4v33.2h-17.2v-63.2h14.6l22.5,33.1h0.5v-33.1H1352.1z"/>
			<path class="st4" d="M1423.7-378.2c0,7-1.4,13-4.1,17.8c-2.7,4.8-6.4,8.5-11.1,11c-4.7,2.5-9.8,3.7-15.6,3.7
				c-5.8,0-11-1.2-15.6-3.8c-4.6-2.5-8.3-6.2-11.1-11c-2.7-4.8-4.1-10.7-4.1-17.7c0-7,1.4-13,4.1-17.8c2.7-4.8,6.4-8.5,11.1-11
				c4.6-2.5,9.8-3.7,15.6-3.7c5.7,0,10.9,1.2,15.6,3.7c4.7,2.5,8.3,6.1,11.1,11C1422.3-391.2,1423.7-385.3,1423.7-378.2z
				 M1406.1-378.2c0-3.8-0.5-7-1.5-9.6c-1-2.6-2.5-4.6-4.4-5.9c-1.9-1.3-4.3-2-7.2-2c-2.8,0-5.2,0.7-7.2,2c-1.9,1.3-3.4,3.3-4.4,5.9
				c-1,2.6-1.5,5.8-1.5,9.6c0,3.8,0.5,7,1.5,9.6c1,2.6,2.5,4.6,4.4,5.9c1.9,1.3,4.3,2,7.2,2c2.8,0,5.2-0.7,7.2-2
				c1.9-1.3,3.4-3.3,4.4-5.9C1405.6-371.3,1406.1-374.5,1406.1-378.2z"/>
			<path class="st4" d="M1433.8-346.6v-63.2h27.3c4.7,0,8.8,0.9,12.3,2.6c3.5,1.7,6.3,4.2,8.2,7.4c2,3.2,2.9,7.1,2.9,11.5
				c0,4.5-1,8.3-3,11.5c-2,3.1-4.8,5.5-8.4,7c-3.6,1.6-7.8,2.4-12.6,2.4h-16.3v-13.3h12.8c2,0,3.7-0.3,5.2-0.8
				c1.4-0.5,2.5-1.3,3.3-2.4c0.8-1.1,1.2-2.6,1.2-4.4c0-1.8-0.4-3.3-1.2-4.4c-0.8-1.1-1.9-2-3.3-2.5c-1.4-0.5-3.2-0.8-5.2-0.8h-6.1
				v49.5H1433.8z M1470.8-375.7l15.8,29H1468l-15.4-29H1470.8z"/>
			<path class="st4" d="M1492.3-396v-13.8h55v13.8h-19v49.4h-16.9V-396H1492.3z"/>
			<path class="st4" d="M1555.8-346.6v-63.2h45.6v13.8H1573v10.9h26.1v13.8H1573v10.9h28.3v13.8H1555.8z"/>
		</g>
		<g>
			<path class="st4" d="M540.6-537v-10.3h54v10.3h-20.9v57.4h-12.2V-537H540.6z"/>
			<path class="st4" d="M607.2-479.7v-67.6h25.4c5.2,0,9.6,0.9,13.1,2.7c3.5,1.8,6.2,4.3,8,7.6c1.8,3.2,2.7,7,2.7,11.3
				c0,4.3-0.9,8.1-2.8,11.3c-1.8,3.2-4.5,5.6-8.1,7.4c-3.6,1.7-8,2.6-13.1,2.6h-18.1v-10.2h16.4c3,0,5.5-0.4,7.5-1.3
				c1.9-0.8,3.4-2.1,4.3-3.7c0.9-1.6,1.4-3.7,1.4-6.1c0-2.4-0.5-4.5-1.4-6.2c-0.9-1.7-2.4-3-4.3-3.9c-1.9-0.9-4.4-1.3-7.5-1.3h-11.2
				v57.4H607.2z M642.2-510.3l16.7,30.7h-13.7l-16.4-30.7H642.2z"/>
			<path class="st4" d="M682.3-547.3v67.6h-12.3v-67.6H682.3z"/>
			<path class="st4" d="M698-479.7v-67.6h25.9c4.9,0,9,0.8,12.2,2.3c3.2,1.5,5.7,3.6,7.3,6.3c1.6,2.6,2.4,5.6,2.4,9
				c0,2.8-0.5,5.1-1.6,7.1c-1.1,1.9-2.5,3.5-4.3,4.7c-1.8,1.2-3.8,2.1-6,2.6v0.7c2.4,0.1,4.7,0.9,6.9,2.2c2.2,1.3,4,3.2,5.4,5.6
				c1.4,2.4,2.1,5.4,2.1,8.8c0,3.5-0.8,6.6-2.5,9.4c-1.7,2.8-4.3,5-7.7,6.6c-3.4,1.6-7.7,2.4-12.9,2.4H698z M710.2-518.5h12.1
				c2.1,0,4-0.4,5.7-1.2c1.7-0.8,3-1.9,4-3.3c1-1.4,1.5-3.2,1.5-5.1c0-2.6-0.9-4.8-2.8-6.5c-1.8-1.7-4.6-2.5-8.2-2.5h-12.4V-518.5z
				 M710.2-489.9h13.2c4.4,0,7.7-0.9,9.6-2.6c2-1.7,3-3.9,3-6.6c0-2-0.5-3.8-1.5-5.4c-1-1.6-2.4-2.9-4.2-3.8c-1.8-0.9-4-1.4-6.5-1.4
				h-13.5V-489.9z"/>
			<path class="st4" d="M804.1-547.3h12.3v44.2c0,4.8-1.1,9.1-3.4,12.8c-2.3,3.7-5.5,6.5-9.6,8.6c-4.1,2.1-8.9,3.1-14.4,3.1
				c-5.5,0-10.3-1-14.5-3.1c-4.1-2.1-7.3-4.9-9.6-8.6c-2.3-3.7-3.4-7.9-3.4-12.8v-44.2h12.3v43.2c0,2.8,0.6,5.3,1.9,7.5
				c1.2,2.2,3,3.9,5.3,5.2c2.3,1.2,5,1.9,8.1,1.9c3.1,0,5.8-0.6,8.1-1.9c2.3-1.2,4-3,5.3-5.2c1.2-2.2,1.8-4.7,1.8-7.5V-547.3z"/>
			<path class="st4" d="M887.6-547.3v67.6h-10.9l-31.9-46.1h-0.6v46.1H832v-67.6h11l31.8,46.1h0.6v-46.1H887.6z"/>
			<path class="st4" d="M911.9-479.7h-13.1l23.8-67.6h15.1l23.8,67.6h-13.1l-18.1-53.8h-0.5L911.9-479.7z M912.3-506.2H948v9.8
				h-35.7V-506.2z"/>
			<path class="st4" d="M972.9-479.7v-67.6h12.3v57.4h29.8v10.3H972.9z"/>
			<path class="st4" d="M1076.2-479.7h-22.9v-67.6h23.4c6.7,0,12.5,1.3,17.3,4c4.8,2.7,8.6,6.6,11.1,11.6c2.6,5,3.9,11.1,3.9,18.1
				c0,7-1.3,13.1-3.9,18.2c-2.6,5.1-6.4,9-11.3,11.7S1083.1-479.7,1076.2-479.7z M1065.5-490.3h10.1c4.7,0,8.6-0.9,11.8-2.6
				c3.1-1.7,5.5-4.3,7.1-7.8c1.6-3.4,2.4-7.8,2.4-12.9c0-5.2-0.8-9.5-2.4-12.9c-1.6-3.4-3.9-6-7-7.7c-3.1-1.7-6.9-2.6-11.5-2.6
				h-10.4V-490.3z"/>
			<path class="st4" d="M1123-479.7v-67.6h44v10.3h-31.7v18.4h29.5v10.3h-29.5v18.5h32v10.3H1123z"/>
			<path class="st4" d="M1233.9-547.3h12.2v47.6c0,4.4-0.9,8.1-2.8,11.2c-1.8,3.1-4.4,5.5-7.6,7.2c-3.3,1.7-7.1,2.5-11.4,2.5
				c-4,0-7.5-0.7-10.7-2.1c-3.2-1.4-5.7-3.5-7.5-6.3c-1.8-2.8-2.8-6.3-2.8-10.4h12.2c0,1.8,0.4,3.4,1.2,4.7c0.8,1.3,1.9,2.3,3.3,3
				c1.4,0.7,3,1.1,4.8,1.1c2,0,3.6-0.4,5-1.2c1.4-0.8,2.4-2.1,3.1-3.7c0.7-1.6,1.1-3.6,1.1-6V-547.3z"/>
			<path class="st4" d="M1304.3-547.3h12.3v44.2c0,4.8-1.1,9.1-3.4,12.8c-2.3,3.7-5.5,6.5-9.6,8.6c-4.1,2.1-8.9,3.1-14.4,3.1
				c-5.5,0-10.4-1-14.5-3.1c-4.1-2.1-7.3-4.9-9.6-8.6c-2.3-3.7-3.4-7.9-3.4-12.8v-44.2h12.3v43.2c0,2.8,0.6,5.3,1.9,7.5
				c1.2,2.2,3,3.9,5.3,5.2c2.3,1.2,5,1.9,8.1,1.9c3.1,0,5.8-0.6,8.1-1.9c2.3-1.2,4-3,5.3-5.2c1.2-2.2,1.8-4.7,1.8-7.5V-547.3z"/>
			<path class="st4" d="M1369-528.7c-0.3-2.9-1.6-5.1-3.9-6.7c-2.3-1.6-5.2-2.4-8.9-2.4c-2.6,0-4.7,0.4-6.6,1.2
				c-1.8,0.8-3.2,1.8-4.2,3.1c-1,1.3-1.5,2.8-1.5,4.5c0,1.4,0.3,2.6,1,3.7c0.6,1,1.5,1.9,2.7,2.6c1.1,0.7,2.4,1.3,3.7,1.8
				c1.4,0.5,2.7,0.9,4.1,1.2l6.3,1.6c2.6,0.6,5,1.4,7.4,2.4c2.4,1,4.5,2.3,6.4,3.8c1.9,1.5,3.4,3.4,4.5,5.6c1.1,2.2,1.7,4.7,1.7,7.7
				c0,4-1,7.4-3,10.5c-2,3-4.9,5.4-8.8,7c-3.8,1.7-8.4,2.5-13.9,2.5c-5.3,0-9.8-0.8-13.7-2.4s-6.9-4-9.1-7.1
				c-2.2-3.1-3.3-6.9-3.5-11.4h12.1c0.2,2.4,0.9,4.3,2.2,5.9c1.3,1.6,2.9,2.7,5,3.5c2.1,0.8,4.4,1.2,6.9,1.2c2.7,0,5-0.4,7-1.2
				c2-0.8,3.6-1.9,4.7-3.4c1.1-1.4,1.7-3.1,1.8-5.1c0-1.8-0.5-3.2-1.6-4.4c-1-1.2-2.4-2.1-4.2-2.9c-1.8-0.8-3.9-1.5-6.4-2.1l-7.7-2
				c-5.6-1.4-10-3.6-13.2-6.5s-4.8-6.8-4.8-11.6c0-4,1.1-7.5,3.3-10.5s5.1-5.3,8.9-7c3.7-1.7,8-2.5,12.7-2.5c4.8,0,9,0.8,12.6,2.5
				c3.6,1.7,6.5,4,8.5,6.9c2.1,2.9,3.1,6.3,3.2,10.1H1369z"/>
			<path class="st4" d="M1392-537v-10.3h54v10.3h-20.9v57.4h-12.2V-537H1392z"/>
			<path class="st4" d="M1470.9-547.3v67.6h-12.3v-67.6H1470.9z"/>
			<path class="st4" d="M1544.5-524.5h-12.4c-0.4-2-1-3.8-1.9-5.4c-0.9-1.6-2.1-2.9-3.5-4c-1.4-1.1-3-1.9-4.8-2.5
				c-1.8-0.6-3.7-0.8-5.8-0.8c-3.7,0-6.9,0.9-9.8,2.8c-2.8,1.8-5.1,4.5-6.7,8.1c-1.6,3.5-2.4,7.8-2.4,12.9c0,5.2,0.8,9.5,2.4,13.1
				c1.6,3.5,3.8,6.2,6.7,8c2.8,1.8,6.1,2.7,9.7,2.7c2,0,3.9-0.3,5.7-0.8c1.8-0.5,3.4-1.3,4.8-2.4c1.4-1.1,2.6-2.4,3.6-3.9
				c1-1.5,1.7-3.3,2-5.3l12.4,0.1c-0.5,3.2-1.5,6.2-3,9.1c-1.5,2.8-3.5,5.3-6,7.4c-2.5,2.1-5.4,3.8-8.7,5c-3.3,1.2-7,1.8-11,1.8
				c-5.9,0-11.3-1.4-15.9-4.1c-4.7-2.8-8.3-6.7-11-11.9c-2.7-5.2-4-11.4-4-18.7c0-7.3,1.4-13.5,4.1-18.7c2.7-5.2,6.4-9.2,11.1-11.9
				c4.7-2.8,10-4.1,15.9-4.1c3.8,0,7.3,0.5,10.5,1.6c3.2,1.1,6.1,2.6,8.7,4.6c2.5,2,4.6,4.5,6.3,7.5
				C1542.9-531.6,1544-528.2,1544.5-524.5z M1512.4-479.7h6.5l-0.5,2.8c2.1,0.3,3.8,1.1,5.3,2.4c1.4,1.3,2.2,3.1,2.2,5.6
				c0,3.1-1.4,5.6-4.2,7.5c-2.8,1.9-6.8,2.8-12.1,2.8l-0.1-5.9c2.5,0,4.5-0.3,6-1c1.5-0.7,2.3-1.7,2.3-3.2c0-1.4-0.5-2.4-1.6-3.1
				s-2.8-1.1-5.2-1.3L1512.4-479.7z"/>
			<path class="st4" d="M1565.9-479.7h-13.1l23.8-67.6h15.1l23.9,67.6h-13.1l-18.1-53.8h-0.5L1565.9-479.7z M1566.3-506.2h35.7v9.8
				h-35.7V-506.2z"/>
		</g>
	</g>
</g>
</svg>
